<?xml version="1.0" encoding="utf-8"?>
<!-- Generator: Adobe Illustrator 21.1.0, SVG Export Plug-In . SVG Version: 6.00 Build 0)  -->
<svg version="1.0" id="_x35_6e2f529-f096-404e-8a8c-c8fe27650791"
	 xmlns="http://www.w3.org/2000/svg" xmlns:xlink="http://www.w3.org/1999/xlink" x="0px" y="0px" viewBox="0 0 250 203.1"
	 enable-background="new 0 0 250 203.1" xml:space="preserve">
<title>twitter</title>
<path fill="#DDDDDD" d="M78.6,203.1c94.4,0,145.9-78.1,145.9-145.9c0-2.2,0-4.4-0.1-6.6c10-7.3,18.7-16.3,25.6-26.6
	c-9.4,4.1-19.3,6.9-29.5,8.1c10.7-6.4,18.7-16.5,22.5-28.4c-10.1,6-21.1,10.2-32.6,12.4c-19.4-20.7-51.9-21.7-72.6-2.2
	c-13.3,12.5-19,31.2-14.8,49C81.9,60.9,43.4,41.4,17.4,9.4C3.8,32.8,10.7,62.8,33.3,77.8c-8.2-0.2-16.1-2.4-23.3-6.4v0.7
	c0,24.4,17.2,45.4,41.2,50.3c-7.6,2.1-15.5,2.4-23.2,0.9c6.7,20.9,26,35.2,47.9,35.6c-18.2,14.3-40.6,22-63.7,22
	c-4.1,0-8.2-0.3-12.2-0.7C23.5,195.2,50.7,203.1,78.6,203.1"/>
</svg>
